<svg width="90" height="90" viewBox="0 0 90 90" fill="none" xmlns="http://www.w3.org/2000/svg">
    <g clip-path="url(#clip0_12_56)">
        <path
            d="M1.90569 44.4614C1.9036 52.0231 3.87941 59.4066 7.63639 65.9145L1.54639 88.1501L24.3017 82.1836C30.5956 85.6099 37.6473 87.4052 44.8134 87.4057H44.8322C68.4886 87.4057 87.7455 68.1558 87.7556 44.4952C87.7601 33.03 83.2992 22.2488 75.1943 14.1376C67.0908 6.02716 56.3135 1.55821 44.8305 1.55298C21.1713 1.55298 1.91581 20.8018 1.90604 44.4614"
            fill="url(#paint0_linear_12_56)"
        />
        <path
            d="M0.373256 44.4474C0.370814 52.2813 2.41744 59.9288 6.30837 66.6698L0 89.7024L23.5713 83.5221C30.0659 87.0631 37.3783 88.9301 44.819 88.9329H44.8381C69.3433 88.9329 89.2919 68.9906 89.3023 44.483C89.3065 32.6058 84.6851 21.4371 76.2907 13.0353C67.8952 4.63465 56.7324 0.00488372 44.8381 0C20.3288 0 0.383023 19.9395 0.373256 44.4474ZM14.4105 65.5088L13.5303 64.1117C9.83058 58.229 7.87779 51.4308 7.88058 44.4502C7.8886 24.0799 24.4667 7.50698 44.8521 7.50698C54.7242 7.51116 64.0019 11.3595 70.98 18.3419C77.9578 25.3249 81.7974 34.6074 81.795 44.4802C81.7859 64.8506 65.2074 81.4256 44.8381 81.4256H44.8235C38.191 81.4221 31.6863 79.6409 26.0135 76.275L24.6635 75.4744L10.6758 79.1417L14.4105 65.5085V65.5088Z"
            fill="url(#paint1_linear_12_56)"
        />
        <path
            d="M33.7249 25.8655C32.8925 24.0157 32.0166 23.9783 31.2251 23.9459C30.577 23.918 29.836 23.9201 29.0958 23.9201C28.3549 23.9201 27.151 24.1988 26.1335 25.3098C25.1149 26.4219 22.2446 29.1094 22.2446 34.5753C22.2446 40.0416 26.2259 45.324 26.7809 46.066C27.3366 46.8066 34.4668 58.3824 45.7594 62.8357C55.1445 66.5365 57.0544 65.8004 59.0913 65.6148C61.1285 65.43 65.6647 62.9281 66.5902 60.3338C67.5164 57.7398 67.5164 55.5164 67.2387 55.0517C66.961 54.5888 66.2201 54.3108 65.109 53.7554C63.9977 53.1997 58.5356 50.5119 57.5173 50.1411C56.4987 49.7707 55.7581 49.5858 55.0172 50.6982C54.2763 51.8089 52.1487 54.3108 51.5002 55.0517C50.8524 55.7944 50.2039 55.8868 49.0932 55.3311C47.9815 54.7737 44.4035 53.6019 40.1585 49.8174C36.8557 46.8725 34.6259 43.2359 33.9778 42.1235C33.3296 41.0128 33.9084 40.4107 34.4654 39.8571C34.9646 39.3593 35.5768 38.5597 36.1329 37.9112C36.6868 37.2624 36.8717 36.7995 37.2422 36.0586C37.613 35.3169 37.4274 34.6681 37.1501 34.1124C36.8717 33.5567 34.7128 28.0622 33.7249 25.8655Z"
            fill="white"
        />
    </g>
    <defs>
        <linearGradient id="paint0_linear_12_56" x1="4312.01" y1="8661.26" x2="4312.01" y2="1.55298" gradientUnits="userSpaceOnUse">
            <stop stop-color="#1FAF38" />
            <stop offset="1" stop-color="#60D669" />
        </linearGradient>
        <linearGradient id="paint1_linear_12_56" x1="4465.12" y1="8970.24" x2="4465.12" y2="0" gradientUnits="userSpaceOnUse">
            <stop stop-color="#F9F9F9" />
            <stop offset="1" stop-color="white" />
        </linearGradient>
        <clipPath id="clip0_12_56">
            <rect width="89.3023" height="90" fill="white" />
        </clipPath>
    </defs>
</svg>
