<svg
    width="20"
    height="21"
    viewBox="0 0 20 21"
    fill="none"
    xmlns="http://www.w3.org/2000/svg"
>
    <g clip-path="url(#clip0_254_885)">
        <path
            d="M17.7778 3.27783H2.22222C1.63285 3.27783 1.06762 3.51196 0.650874 3.92871C0.234126 4.34545 0 4.91068 0 5.50005L0 7.72228H20V5.50005C20 4.91068 19.7659 4.34545 19.3491 3.92871C18.9324 3.51196 18.3671 3.27783 17.7778 3.27783Z"
            fill="#D90012"
        />
        <path
            d="M2.22222 17.7223H17.7778C18.3671 17.7223 18.9324 17.4882 19.3491 17.0714C19.7659 16.6547 20 16.0894 20 15.5001V13.2778H0V15.5001C0 16.0894 0.234126 16.6547 0.650874 17.0714C1.06762 17.4882 1.63285 17.7223 2.22222 17.7223Z"
            fill="#F2A800"
        />
        <path d="M0 7.72217H20V13.2777H0V7.72217Z" fill="#0033A0" />
    </g>
    <defs>
        <clipPath id="clip0_254_885">
            <rect width="20" height="20" fill="white" transform="translate(0 0.5)" />
        </clipPath>
    </defs>
</svg>
