<svg
    width="20"
    height="15"
    viewBox="0 0 20 15"
    fill="none"
    xmlns="http://www.w3.org/2000/svg"
>
    <g clip-path="url(#clip0_289_1367)">
        <path d="M19.9949 14.9756H0.00012207V0.00137711H19.9949V14.9756Z" fill="white" />
        <path
            d="M19.9963 5.99314H11.1923V0.00222397H8.78912V5.99314H0.00842285V8.98695H8.78912V14.9753H11.1923V8.98695H19.9963V5.99314Z"
            fill="#CE1124"
        />
        <path
            d="M0.000366211 1.7453V5.00562H4.36151L0.000366211 1.7453Z"
            fill="#00247D"
        />
        <path
            d="M2.40617 0.000883579L2.34229 0.00502682L7.99714 4.25488V0.000883579H2.40617Z"
            fill="#00247D"
        />
        <path
            d="M6.71166 4.98462L0.000366211 0.00130558V1.17592L5.11242 4.98462H6.71166Z"
            fill="#CE1124"
        />
        <path
            d="M13.2886 9.99085L19.9999 14.9741V13.7995L14.8878 9.99085H13.2886Z"
            fill="#CE1124"
        />
        <path
            d="M0.000366211 13.2559V9.99553H4.36151L0.000366211 13.2559Z"
            fill="#00247D"
        />
        <path d="M2.40617 15L2.34229 14.9959L7.99714 10.746V15H2.40617Z" fill="#00247D" />
        <path
            d="M6.67747 9.99067L0.00488281 14.9717L1.56542 14.9739L8.00387 10.1932V9.99067H6.67747Z"
            fill="#CE1124"
        />
        <path d="M20 1.74459V5.00488H15.6389L20 1.74459Z" fill="#00247D" />
        <path
            d="M17.5941 0.000165462L17.658 0.00427675L12.0032 4.25415V0.000165462H17.5941Z"
            fill="#00247D"
        />
        <path
            d="M19.9936 0.00714397L18.4926 0.0069685L12.0088 4.8213V4.99023H13.3805L19.9936 0.00714397Z"
            fill="#CE1124"
        />
        <path d="M20 13.2544V9.99407H15.6389L20 13.2544Z" fill="#00247D" />
        <path
            d="M17.5941 14.9988L17.658 14.9948L12.0032 10.7448V14.9988H17.5941Z"
            fill="#00247D"
        />
    </g>
    <defs>
        <clipPath id="clip0_289_1367">
            <rect width="20" height="15" rx="2.23077" fill="white" />
        </clipPath>
    </defs>
</svg>