<svg
    width="20"
    height="21"
    viewBox="0 0 20 21"
    fill="none"
    xmlns="http://www.w3.org/2000/svg"
>
    <g clip-path="url(#clip0_254_889)">
        <path
            d="M20 15.5001C20 16.0894 19.7659 16.6547 19.3491 17.0714C18.9324 17.4882 18.3671 17.7223 17.7778 17.7223H2.22222C1.63285 17.7223 1.06762 17.4882 0.650874 17.0714C0.234126 16.6547 0 16.0894 0 15.5001V13.2778H20V15.5001Z"
            fill="#CE2028"
        />
        <path d="M0 7.72217H20V13.2777H0V7.72217Z" fill="#22408C" />
        <path
            d="M17.7778 3.27783H2.22222C1.63285 3.27783 1.06762 3.51196 0.650874 3.92871C0.234126 4.34545 0 4.91068 0 5.50005L0 7.72228H20V5.50005C20 4.91068 19.7659 4.34545 19.3491 3.92871C18.9324 3.51196 18.3671 3.27783 17.7778 3.27783Z"
            fill="#EEEEEE"
        />
    </g>
    <defs>
        <clipPath id="clip0_254_889">
            <rect width="20" height="20" fill="white" transform="translate(0 0.5)" />
        </clipPath>
    </defs>
</svg>